# xmcd
#
# Track frame offsets:
#	150
#	22175
#	46836
#	69538
#	87044
#	118971
#	154631
#	171893
#	194394
#	214186
#	233043
#
# Disc length: 3342 seconds
#
# Revision: 0
# Processed by: cddbd v1.4PL0 Copyright (c) Steve Scherf et al.
# Submitted via: EasyCDDAExtractor 4.6.9.1
#
DISCID=930d0c0b
DTITLE=Vama Veche - Nu am chef azi
DYEAR=1900
DGENRE=Blues
TTITLE0=Calul din Marlboro
TTITLE1=Nu am chef azi
TTITLE2=Sha La La La
TTITLE3=Iubeste
TTITLE4=Sweet Little Nightmare
TTITLE5=Armata (Am sa ma intorc barbat)
TTITLE6=Sf. Petru
TTITLE7=Cloud
TTITLE8=Vama Veche Reggae
TTITLE9=Atentie se inchid usile (Romania Is My Country)
TTITLE10=The Band
EXTD=
EXTT0=
EXTT1=
EXTT2=
EXTT3=
EXTT4=
EXTT5=
EXTT6=
EXTT7=
EXTT8=
EXTT9=
EXTT10=
PLAYORDER=
